<?xml version="1.0" standalone="no"?>
<!DOCTYPE svg PUBLIC "-//W3C//DTD SVG 20010904//EN"
 "http://www.w3.org/TR/2001/REC-SVG-20010904/DTD/svg10.dtd">
<svg version="1.0" xmlns="http://www.w3.org/2000/svg"
 width="120px" height="80px" viewBox="0 0 1558.000000 1131.000000"
 preserveAspectRatio="xMidYMid meet">
<metadata>
Created by potrace 1.16, written by Peter Selinger 2001-2019
</metadata>
<g transform="translate(0.000000,1131.000000) scale(0.100000,-0.100000)"
fill="#fff" stroke="none">
<path d="M5385 11299 c-49 -4 -142 -12 -205 -19 -63 -6 -144 -14 -180 -16 -36
-3 -74 -9 -85 -14 -11 -5 -47 -11 -80 -15 -114 -12 -145 -17 -145 -25 0 -4
-21 -10 -47 -14 -79 -10 -117 -17 -138 -26 -11 -5 -36 -11 -55 -13 -45 -5
-239 -55 -262 -68 -10 -5 -31 -9 -48 -9 -16 0 -30 -4 -30 -9 0 -5 -12 -11 -27
-14 -54 -9 -148 -38 -158 -48 -5 -5 -19 -9 -32 -9 -13 0 -32 -4 -43 -10 -11
-5 -29 -14 -40 -20 -11 -5 -27 -10 -35 -10 -8 0 -34 -8 -58 -19 -23 -10 -80
-33 -127 -51 -47 -18 -103 -40 -125 -50 -112 -50 -136 -60 -150 -60 -8 0 -15
-4 -15 -10 0 -5 -9 -10 -20 -10 -11 0 -20 -4 -20 -10 0 -5 -9 -10 -20 -10 -11
0 -20 -4 -20 -10 0 -5 -9 -10 -20 -10 -11 0 -20 -4 -20 -10 0 -5 -5 -10 -12
-10 -12 0 -159 -70 -168 -81 -3 -3 -30 -18 -60 -33 -30 -16 -83 -46 -118 -67
-35 -22 -67 -39 -71 -39 -4 0 -13 -9 -21 -20 -8 -11 -21 -20 -30 -20 -8 0 -26
-9 -40 -20 -14 -11 -29 -20 -33 -20 -4 0 -17 -9 -29 -20 -12 -11 -28 -20 -35
-20 -7 0 -13 -4 -13 -10 0 -5 -7 -10 -15 -10 -8 0 -15 -4 -15 -10 0 -5 -6 -10
-14 -10 -8 0 -16 -4 -18 -8 -1 -5 -32 -28 -68 -52 -36 -24 -66 -47 -68 -52 -2
-4 -10 -8 -18 -8 -8 0 -14 -4 -14 -8 0 -4 -12 -15 -27 -24 -16 -9 -41 -28 -58
-42 -16 -14 -35 -26 -40 -26 -6 0 -16 -9 -23 -20 -7 -11 -17 -20 -23 -20 -7 0
-31 -19 -55 -42 -24 -24 -72 -65 -108 -93 -36 -27 -68 -58 -72 -67 -3 -10 -11
-18 -18 -18 -6 0 -32 -18 -56 -41 -105 -96 -187 -177 -221 -217 -20 -23 -40
-42 -44 -42 -9 0 -145 -150 -145 -161 0 -3 -31 -38 -70 -78 -38 -39 -70 -76
-70 -82 0 -6 -18 -28 -40 -49 -22 -21 -40 -43 -40 -48 0 -5 -12 -20 -27 -35
-16 -14 -44 -49 -63 -77 -19 -28 -51 -72 -70 -99 -19 -27 -42 -58 -50 -71 -8
-13 -25 -35 -38 -50 -12 -15 -22 -32 -22 -37 0 -5 -9 -15 -20 -23 -11 -8 -20
-20 -20 -27 0 -7 -16 -36 -35 -63 -19 -27 -35 -56 -35 -64 0 -8 -3 -16 -7 -18
-13 -5 -47 -58 -84 -128 -18 -36 -36 -67 -39 -70 -15 -14 -220 -422 -220 -438
0 -5 -14 -41 -31 -78 -52 -114 -59 -132 -59 -141 0 -4 -6 -20 -14 -35 -8 -14
-19 -43 -26 -65 -7 -21 -16 -42 -20 -48 -10 -14 -60 -167 -60 -184 0 -7 -6
-27 -14 -44 -8 -18 -20 -57 -27 -87 -6 -30 -16 -62 -20 -70 -9 -17 -26 -83
-42 -157 -6 -29 -15 -53 -20 -53 -4 0 -6 -4 -3 -8 3 -5 -4 -44 -14 -88 -41
-168 -97 -542 -117 -779 -12 -141 -9 -735 5 -880 21 -227 30 -308 41 -370 6
-33 15 -89 21 -125 5 -36 13 -85 19 -110 5 -24 8 -48 5 -52 -3 -4 -1 -8 4 -8
5 0 12 -19 15 -42 14 -103 117 -486 147 -549 4 -8 15 -43 24 -77 8 -34 25 -80
36 -102 11 -21 20 -44 20 -50 0 -15 42 -125 87 -225 19 -44 42 -96 50 -115 31
-70 204 -414 216 -429 7 -9 26 -41 42 -71 15 -30 31 -57 35 -60 3 -3 19 -30
34 -60 16 -30 32 -57 35 -60 4 -3 22 -30 41 -60 19 -30 37 -57 40 -60 3 -3 10
-12 15 -21 35 -58 133 -198 152 -217 13 -13 23 -27 23 -32 0 -5 19 -31 43 -58
23 -28 52 -63 64 -78 12 -16 30 -39 40 -51 10 -12 28 -35 40 -50 41 -52 101
-113 111 -113 5 0 12 -10 15 -22 9 -33 368 -393 514 -515 21 -18 52 -44 68
-58 17 -14 36 -25 43 -25 6 0 12 -7 12 -15 0 -8 3 -15 8 -15 4 0 21 -13 39
-28 61 -53 73 -62 83 -62 6 0 10 -4 10 -10 0 -5 5 -10 10 -10 6 0 24 -12 41
-27 16 -15 53 -43 82 -63 29 -19 68 -47 88 -62 20 -16 41 -28 47 -28 7 0 12
-4 12 -10 0 -5 7 -10 15 -10 8 0 15 -4 15 -10 0 -5 6 -10 14 -10 8 0 16 -4 18
-8 5 -14 126 -92 142 -92 9 0 16 -4 16 -8 0 -5 17 -17 38 -29 72 -39 117 -65
122 -72 3 -3 16 -12 29 -19 108 -61 98 -56 229 -121 57 -28 110 -51 117 -51 7
0 15 -4 17 -8 4 -11 94 -52 113 -52 8 0 15 -4 15 -10 0 -5 7 -10 15 -10 8 0
23 -4 33 -9 9 -5 31 -14 47 -21 17 -7 38 -16 47 -21 10 -5 27 -9 38 -9 11 0
20 -4 20 -10 0 -5 7 -10 15 -10 8 0 23 -4 33 -9 31 -16 66 -29 132 -51 62 -20
74 -25 130 -48 14 -5 45 -15 70 -22 101 -28 116 -33 132 -41 10 -5 27 -9 38
-9 11 0 28 -4 38 -9 31 -15 88 -31 115 -31 14 0 29 -4 32 -10 3 -5 19 -10 35
-10 16 0 32 -4 35 -10 3 -5 24 -10 45 -10 21 0 41 -4 44 -9 3 -4 25 -11 48
-15 56 -8 129 -21 199 -35 201 -41 536 -76 869 -90 311 -13 942 26 1125 69 28
7 79 16 115 21 36 5 85 13 110 18 25 5 63 12 85 16 22 4 49 10 60 15 11 5 36
11 55 15 19 3 50 8 68 12 18 3 35 9 38 14 3 5 20 9 39 9 19 0 36 4 39 9 3 5
20 11 38 14 76 13 98 20 98 28 0 5 11 9 25 9 14 0 33 4 43 9 9 5 37 14 62 21
25 7 53 16 62 21 10 5 27 9 38 9 11 0 20 5 20 10 0 6 11 10 24 10 14 0 28 5
31 10 3 6 19 10 36 10 16 0 29 5 29 10 0 6 11 10 25 10 14 0 25 5 25 10 0 6
11 10 25 10 14 0 25 5 25 10 0 6 14 10 30 10 17 0 30 5 30 10 0 6 7 10 15 10
8 0 23 4 33 9 16 9 44 21 127 56 17 7 51 22 77 34 26 11 51 21 55 21 5 0 19 9
33 20 14 11 33 20 43 20 9 0 17 5 17 10 0 6 9 10 20 10 11 0 20 5 20 10 0 6 7
10 15 10 8 0 36 13 63 29 26 15 64 34 84 40 20 7 38 15 40 19 2 4 24 18 51 31
26 13 47 28 47 33 0 4 5 8 11 8 6 0 30 14 54 30 24 17 48 30 54 30 6 0 11 5
11 10 0 6 7 10 15 10 8 0 15 5 15 10 0 6 7 10 15 10 8 0 15 5 15 10 0 6 6 10
14 10 7 0 40 18 72 40 33 22 64 40 69 40 6 0 17 9 25 20 8 11 20 20 27 20 7 0
13 4 13 8 0 5 12 15 28 23 15 8 34 22 43 31 9 10 21 18 27 18 6 0 12 4 14 8 2
5 23 22 48 39 25 17 55 41 67 52 12 12 27 21 33 21 5 0 10 4 10 8 0 4 12 15
28 24 15 10 44 33 64 53 20 19 39 35 42 35 4 0 21 14 39 31 17 17 54 50 81 73
128 108 390 370 476 476 19 23 49 57 65 74 27 27 63 71 148 179 12 16 34 40
50 54 15 15 27 30 27 35 0 5 6 16 13 23 19 22 30 37 62 85 17 25 38 54 48 64
9 11 17 23 17 28 0 7 11 22 55 72 16 19 35 55 35 67 0 6 6 16 13 23 6 8 19 24
27 36 8 12 20 28 25 34 6 6 23 36 39 66 17 30 40 70 52 88 13 19 26 42 29 53
4 10 11 19 16 19 5 0 9 9 9 19 0 11 4 22 9 25 5 3 19 25 31 48 12 24 26 45 30
48 12 8 40 67 40 85 0 8 7 15 15 15 9 0 15 9 15 23 0 36 58 177 72 177 5 0 8
6 8 14 0 12 12 43 55 141 7 17 16 41 20 55 4 14 11 30 15 35 4 6 17 41 30 79
12 37 29 80 36 95 8 14 17 43 20 64 4 20 11 40 15 43 5 3 9 16 9 29 0 13 5 27
10 30 6 3 10 17 10 31 0 13 4 24 9 24 14 0 45 150 34 161 -7 7 -30 7 -69 -1
-33 -7 -79 -16 -104 -21 -25 -5 -103 -17 -173 -26 -109 -14 -142 -15 -225 -5
-53 7 -114 12 -134 12 -35 0 -38 -2 -48 -42 -6 -24 -15 -52 -20 -63 -36 -79
-50 -116 -50 -128 0 -7 -16 -46 -35 -86 -19 -39 -35 -76 -35 -82 0 -6 -11 -29
-23 -52 -13 -23 -30 -60 -37 -82 -7 -22 -18 -47 -25 -55 -7 -8 -16 -26 -20
-40 -4 -14 -12 -31 -18 -38 -5 -7 -20 -32 -32 -55 -66 -128 -90 -173 -96 -177
-3 -3 -14 -20 -23 -37 -9 -18 -26 -48 -39 -67 -12 -18 -31 -49 -42 -67 -11
-18 -28 -45 -37 -59 -10 -14 -22 -34 -27 -46 -5 -11 -15 -27 -23 -35 -7 -8
-26 -34 -43 -59 -16 -25 -36 -51 -42 -58 -7 -7 -13 -17 -13 -21 0 -4 -12 -21
-26 -37 -14 -16 -46 -55 -71 -87 -25 -32 -55 -69 -67 -82 -11 -13 -31 -37 -43
-52 -13 -15 -32 -39 -43 -52 -11 -13 -20 -28 -20 -33 0 -4 -7 -8 -15 -8 -8 0
-15 -4 -15 -9 0 -18 -408 -431 -425 -431 -3 0 -21 -15 -39 -32 -53 -51 -96
-88 -102 -88 -3 0 -23 -16 -44 -36 -22 -21 -57 -48 -77 -62 -21 -14 -40 -28
-43 -32 -3 -3 -21 -17 -40 -30 -19 -13 -42 -32 -51 -42 -9 -10 -21 -18 -28
-18 -6 0 -11 -4 -11 -10 0 -5 -5 -10 -11 -10 -12 0 -133 -80 -137 -92 -2 -4
-10 -8 -18 -8 -8 0 -14 -4 -14 -10 0 -5 -5 -10 -11 -10 -6 0 -30 -13 -54 -30
-24 -17 -47 -30 -51 -30 -4 0 -30 -15 -58 -34 -28 -18 -91 -55 -141 -81 -49
-27 -105 -56 -123 -67 -18 -10 -39 -18 -46 -18 -8 0 -16 -3 -18 -7 -1 -5 -25
-19 -53 -32 -27 -13 -58 -27 -67 -32 -10 -5 -25 -9 -33 -9 -8 0 -15 -4 -15 -9
0 -5 -20 -15 -45 -22 -25 -7 -45 -17 -45 -21 0 -4 -11 -8 -25 -8 -14 0 -25 -4
-25 -10 0 -5 -7 -10 -15 -10 -8 0 -25 -5 -38 -12 -47 -24 -57 -28 -72 -28 -8
0 -15 -4 -15 -9 0 -5 -12 -11 -27 -14 -36 -7 -252 -82 -260 -91 -3 -3 -19 -6
-34 -6 -15 0 -31 -4 -34 -10 -3 -5 -17 -10 -30 -10 -13 0 -26 -4 -29 -9 -3 -5
-23 -11 -43 -14 -21 -3 -54 -10 -73 -15 -102 -30 -153 -42 -175 -42 -13 0 -27
-4 -30 -10 -3 -5 -26 -10 -50 -10 -24 0 -46 -4 -49 -9 -3 -5 -29 -11 -58 -15
-97 -11 -133 -17 -153 -26 -11 -5 -49 -11 -85 -14 -36 -4 -101 -10 -145 -16
-330 -38 -812 -39 -1150 -1 -44 5 -109 12 -145 16 -36 3 -74 10 -85 15 -11 5
-40 11 -65 14 -98 12 -135 18 -145 27 -5 5 -25 9 -45 9 -20 0 -40 4 -45 9 -6
5 -28 11 -50 14 -68 10 -109 18 -130 27 -11 4 -42 14 -70 20 -55 14 -109 29
-140 40 -51 18 -93 30 -108 30 -9 0 -17 5 -17 10 0 6 -16 10 -35 10 -19 0 -35
4 -35 8 0 5 -23 15 -51 22 -27 8 -52 18 -55 22 -3 4 -13 8 -23 8 -9 0 -36 9
-59 20 -22 11 -48 20 -57 20 -8 0 -15 5 -15 10 0 6 -13 10 -30 10 -16 0 -30 3
-30 8 0 4 -15 13 -32 20 -46 19 -113 50 -182 83 -32 16 -65 29 -72 29 -7 0
-14 3 -16 8 -1 4 -34 23 -73 42 -38 19 -71 38 -73 43 -2 4 -9 7 -16 7 -18 0
-66 24 -66 33 0 4 -5 7 -11 7 -6 0 -34 15 -62 34 -29 18 -81 51 -117 72 -36
21 -67 42 -68 47 -2 4 -8 7 -14 7 -6 0 -27 13 -48 30 -21 16 -42 30 -48 30 -6
0 -12 3 -14 8 -1 4 -41 34 -88 67 -113 78 -174 125 -178 136 -2 5 -8 9 -13 9
-6 0 -20 10 -33 22 -13 13 -35 32 -49 43 -14 11 -42 36 -64 55 -21 19 -50 41
-65 49 -16 8 -28 18 -28 22 0 5 -19 25 -41 46 -23 21 -47 44 -53 51 -6 7 -17
18 -24 25 -57 53 -218 217 -276 282 -39 44 -77 86 -84 93 -7 8 -25 30 -40 50
-15 20 -35 46 -44 57 -36 43 -54 65 -75 92 -12 15 -31 39 -42 52 -12 13 -21
28 -21 32 0 4 -6 14 -12 21 -7 7 -26 33 -43 58 -16 25 -34 50 -38 55 -4 6 -32
48 -62 95 -30 47 -58 90 -62 95 -7 10 -31 51 -57 100 -6 11 -13 22 -17 25 -5
5 -32 55 -67 125 -9 17 -19 32 -22 35 -4 3 -11 16 -15 30 -4 14 -13 32 -20 40
-7 8 -18 32 -25 53 -6 20 -15 37 -18 37 -4 0 -13 15 -20 32 -8 18 -22 53 -32
78 -45 112 -54 130 -62 130 -4 0 -8 8 -8 18 0 9 -7 30 -15 46 -8 15 -15 37
-15 47 0 10 -4 20 -9 23 -4 3 -14 26 -21 51 -7 25 -17 48 -21 51 -5 3 -9 13
-9 22 0 9 -18 73 -40 142 -67 208 -92 293 -101 340 -4 25 -13 70 -19 100 -7
30 -16 75 -21 100 -14 68 -41 231 -45 270 -2 19 -11 94 -20 165 -24 183 -25
771 -1 967 17 138 50 356 66 438 25 125 62 287 70 305 5 11 17 51 26 88 15 63
114 367 135 412 23 52 62 152 67 173 3 12 9 22 14 22 5 0 9 7 9 15 0 9 11 37
25 63 14 26 25 54 25 64 0 9 4 18 8 20 5 2 40 64 77 138 38 74 74 142 80 150
7 8 25 40 41 70 30 57 60 105 82 128 6 7 12 18 12 23 0 5 15 31 34 57 18 27
37 58 40 70 4 12 11 22 16 22 5 0 11 8 14 18 3 9 16 29 30 43 13 14 29 36 36
49 7 13 17 29 21 34 5 6 25 31 44 56 20 25 49 61 65 80 16 19 38 46 49 60 48
59 88 105 121 141 19 20 60 65 90 99 68 75 170 180 176 180 2 0 23 19 47 43
24 23 80 76 126 117 46 41 89 81 96 88 8 6 16 12 19 12 6 0 37 24 70 55 12 11
48 40 81 65 33 25 62 47 65 50 3 4 28 22 55 41 28 18 52 37 53 42 2 4 10 7 17
7 7 0 15 4 17 8 5 14 197 137 231 148 9 4 17 10 17 14 0 4 20 17 45 30 25 13
45 27 45 32 0 4 6 8 13 8 8 0 60 26 118 58 115 64 274 142 289 142 6 0 10 4
10 8 0 5 19 15 43 22 23 8 47 17 52 20 6 4 30 15 55 24 25 10 61 24 80 33 48
21 69 29 110 43 19 7 46 17 60 22 14 6 34 14 45 19 25 10 125 42 185 59 25 8
49 17 55 22 5 4 21 8 36 8 15 0 31 5 34 10 3 6 21 10 40 10 19 0 37 5 40 10 3
6 24 10 45 10 21 0 41 4 44 9 3 5 20 11 38 14 18 3 72 15 121 26 48 12 118 26
155 32 37 5 94 15 127 20 33 6 92 13 130 15 39 3 79 9 90 14 34 16 196 22 575
23 344 1 446 -4 675 -33 194 -25 380 -59 550 -101 22 -6 55 -13 73 -16 18 -3
35 -9 38 -14 3 -5 23 -9 45 -9 21 0 39 -4 39 -10 0 -5 11 -10 25 -10 14 0 33
-4 43 -9 9 -5 53 -21 97 -35 125 -39 228 -76 247 -86 10 -6 29 -10 43 -10 14
0 25 -4 25 -10 0 -5 4 -10 10 -10 5 0 39 -13 75 -30 36 -16 70 -30 75 -30 6 0
19 -4 30 -10 11 -5 29 -14 40 -20 11 -5 26 -10 34 -10 8 0 16 -4 18 -8 2 -4
28 -20 58 -34 138 -66 281 -139 290 -148 3 -3 23 -14 45 -26 64 -33 118 -65
147 -85 14 -11 31 -19 37 -19 6 0 11 -4 11 -10 0 -5 7 -10 15 -10 8 0 15 -4
15 -8 0 -5 19 -19 41 -33 23 -13 51 -31 63 -39 12 -8 38 -25 57 -37 45 -30 75
-51 122 -90 21 -18 42 -33 46 -33 4 0 16 -8 27 -17 10 -10 41 -36 68 -57 27
-22 59 -50 72 -63 13 -12 26 -23 29 -23 24 0 410 -378 548 -537 37 -43 85 -98
107 -123 22 -25 40 -48 40 -51 0 -4 12 -20 28 -37 49 -53 70 -80 83 -104 6
-12 15 -25 18 -28 3 -3 11 -12 16 -21 30 -47 65 -98 78 -110 8 -8 22 -30 32
-49 9 -18 31 -54 49 -80 51 -75 56 -84 62 -102 4 -10 10 -18 14 -18 4 0 13
-13 20 -30 7 -16 16 -30 21 -30 5 0 9 -9 9 -19 0 -11 5 -23 10 -26 6 -3 19
-26 30 -51 11 -24 25 -44 30 -44 6 0 10 -7 10 -15 0 -8 27 -69 60 -135 33 -66
60 -125 60 -132 0 -6 6 -19 13 -27 7 -9 24 -44 37 -78 42 -109 41 -108 172
-107 62 0 133 6 158 13 25 7 62 15 83 18 20 3 37 9 37 14 0 5 11 9 24 9 14 0
28 5 31 10 3 6 13 10 21 10 16 0 61 37 108 89 17 19 39 41 49 50 22 20 24 89
2 97 -8 4 -15 14 -15 23 0 9 -7 29 -15 45 -8 15 -15 35 -15 42 0 8 -3 14 -8
14 -7 0 -11 11 -44 103 -7 20 -16 37 -20 37 -5 0 -8 7 -8 15 0 17 -28 77 -40
85 -4 3 -17 28 -29 55 -46 100 -66 141 -89 175 -13 19 -33 53 -43 75 -20 39
-58 105 -79 135 -5 8 -24 38 -42 65 -18 28 -36 52 -40 55 -3 3 -12 17 -18 30
-16 37 -35 68 -53 88 -10 10 -17 23 -17 28 0 5 -14 25 -30 44 -46 54 -46 55
-60 80 -14 26 -19 33 -61 80 -16 18 -29 35 -29 39 0 3 -18 26 -40 51 -22 25
-44 50 -48 55 -82 108 -116 145 -132 145 -5 0 -10 5 -10 11 0 6 -21 36 -47 67
-65 77 -70 82 -82 82 -6 0 -11 4 -11 8 0 5 -8 18 -17 30 -10 11 -25 30 -33 41
-8 12 -17 21 -21 21 -3 0 -57 50 -119 110 -61 61 -118 110 -126 110 -8 0 -14
4 -14 10 0 5 -19 26 -42 47 -23 21 -53 48 -65 61 -13 12 -26 22 -29 22 -5 0
-54 42 -90 78 -13 12 -26 22 -29 22 -4 0 -12 6 -19 13 -7 6 -28 23 -46 37 -19
14 -46 35 -61 48 -15 12 -30 22 -33 22 -5 0 -33 21 -60 45 -6 6 -33 26 -61 45
-27 19 -54 38 -60 42 -5 5 -39 27 -75 49 -36 23 -66 45 -68 50 -2 5 -7 9 -12
9 -4 0 -83 45 -176 100 -93 55 -177 100 -188 100 -10 0 -26 8 -35 18 -9 10
-31 25 -48 33 -18 7 -33 17 -33 21 0 5 -9 8 -20 8 -11 0 -20 5 -20 10 0 6 -6
10 -14 10 -17 0 -100 42 -104 53 -2 4 -17 7 -33 7 -16 0 -29 3 -29 8 0 4 -15
13 -32 21 -48 21 -117 51 -165 72 -24 11 -50 19 -58 19 -8 0 -15 5 -15 10 0 6
-11 10 -24 10 -13 0 -26 4 -28 8 -1 4 -50 23 -108 42 -58 18 -109 36 -115 40
-5 3 -30 12 -55 19 -25 7 -55 17 -68 22 -13 5 -32 9 -42 9 -11 0 -20 5 -20 10
0 6 -16 10 -35 10 -19 0 -35 4 -35 9 0 5 -12 11 -27 14 -16 3 -100 24 -188 46
-146 38 -194 49 -295 66 -19 4 -44 10 -55 15 -11 5 -40 11 -65 14 -25 3 -72
10 -105 16 -100 18 -229 32 -547 60 -129 11 -658 11 -793 -1z"/>
<path d="M8225 9741 c-44 -27 -74 -63 -85 -102 -6 -21 -10 -387 -10 -959 0
-1015 -2 -975 61 -1037 25 -25 44 -33 85 -39 85 -10 151 20 181 83 17 36 18
94 18 998 l0 960 -30 42 c-49 69 -154 95 -220 54z"/>
<path d="M7975 7750 c-3 -5 -21 -10 -40 -10 -19 0 -37 -4 -40 -10 -3 -5 -17
-10 -31 -10 -13 0 -24 -4 -24 -10 0 -5 -11 -10 -25 -10 -14 0 -25 -4 -25 -10
0 -5 -8 -10 -18 -10 -10 0 -24 -9 -32 -20 -8 -11 -19 -20 -24 -20 -9 0 -30
-23 -56 -60 -8 -12 -23 -31 -33 -43 -36 -43 -49 -152 -29 -252 13 -65 46 -150
66 -170 15 -16 21 -68 16 -152 -2 -37 -35 -134 -48 -142 -5 -3 -24 -35 -42
-71 -18 -36 -36 -66 -41 -68 -5 -2 -9 -12 -9 -23 0 -10 -4 -19 -10 -19 -5 0
-10 -7 -10 -16 0 -8 -7 -22 -15 -31 -9 -8 -19 -28 -22 -44 -3 -16 -9 -29 -14
-29 -5 0 -9 -9 -9 -20 0 -11 -3 -20 -8 -20 -9 0 -32 -72 -32 -100 0 -11 -4
-20 -10 -20 -5 0 -10 -18 -10 -40 0 -22 -5 -40 -11 -40 -7 0 -9 -47 -5 -142 5
-161 14 -238 27 -238 5 0 9 -9 9 -20 0 -11 5 -20 10 -20 6 0 10 -8 10 -18 0
-10 9 -24 20 -32 11 -8 20 -22 20 -32 0 -10 6 -18 14 -18 7 0 19 -13 26 -30 7
-16 18 -30 26 -30 7 0 16 -9 19 -20 3 -11 13 -20 21 -20 8 0 14 -4 14 -10 0
-5 9 -10 20 -10 11 0 20 -4 20 -10 0 -5 7 -10 15 -10 8 0 15 -4 15 -10 0 -5 7
-10 15 -10 8 0 15 -4 15 -10 0 -5 9 -10 20 -10 11 0 20 -4 20 -10 0 -5 11 -10
25 -10 14 0 25 -4 25 -10 0 -5 18 -10 40 -10 22 0 40 -4 40 -10 0 -5 18 -10
39 -10 22 0 43 -4 46 -10 3 -5 40 -10 81 -10 43 0 74 -4 74 -10 0 -6 70 -10
189 -10 116 0 192 4 196 10 3 6 42 10 86 10 46 0 79 4 79 10 0 6 22 10 49 10
28 0 53 5 56 10 3 6 19 10 36 10 16 0 29 5 29 10 0 6 11 10 25 10 14 0 25 5
25 10 0 6 7 10 15 10 8 0 15 5 15 10 0 6 9 10 20 10 11 0 20 5 20 10 0 6 7 10
15 10 8 0 15 5 15 10 0 6 7 10 15 10 8 0 15 5 15 10 0 6 7 10 15 10 8 0 15 4
15 8 0 14 36 52 49 52 6 0 11 4 11 8 0 5 8 18 18 30 40 49 52 67 52 79 0 8 11
35 23 61 43 87 54 220 32 385 -4 31 -12 57 -16 57 -5 0 -9 11 -9 25 0 13 -9
44 -19 67 -11 24 -30 67 -42 96 -13 28 -27 52 -31 52 -5 0 -8 7 -8 15 0 17
-28 77 -40 85 -4 3 -15 22 -25 43 -9 20 -21 37 -26 37 -5 0 -9 9 -9 20 0 11
-4 20 -10 20 -5 0 -10 9 -10 20 0 11 -4 20 -8 20 -4 0 -13 21 -20 48 -7 26
-18 64 -24 85 -9 28 -8 47 2 80 8 23 17 44 20 47 4 3 17 40 31 82 13 43 27 78
32 78 4 0 7 50 7 110 0 61 -4 110 -9 110 -5 0 -11 13 -14 29 -3 16 -13 36 -22
44 -8 9 -15 21 -15 27 0 13 -25 40 -37 40 -5 0 -15 9 -23 20 -8 11 -22 20 -32
20 -10 0 -18 5 -18 10 0 6 -9 10 -20 10 -11 0 -20 5 -20 10 0 6 -7 10 -15 10
-8 0 -15 5 -15 10 0 6 -13 10 -30 10 -16 0 -30 5 -30 10 0 6 -18 10 -40 10
-22 0 -40 5 -40 10 0 6 -13 10 -30 10 -24 0 -31 -5 -36 -27 -18 -73 -95 -193
-124 -193 -5 0 -10 -4 -10 -10 0 -5 -11 -10 -25 -10 -14 0 -25 -4 -25 -10 0
-6 -36 -10 -89 -10 -50 0 -93 5 -96 10 -3 6 -15 10 -26 10 -10 0 -19 5 -19 10
0 6 -6 10 -14 10 -8 0 -18 9 -21 20 -3 11 -13 20 -21 20 -8 0 -14 4 -14 8 0 5
-9 19 -20 32 -11 12 -27 49 -37 81 -12 42 -22 59 -35 59 -9 0 -20 -4 -23 -10z
m421 -401 c3 -5 14 -9 25 -9 10 0 19 -4 19 -10 0 -5 7 -10 15 -10 8 0 15 -4
15 -10 0 -5 5 -10 11 -10 17 0 35 -23 68 -88 24 -48 31 -74 31 -119 0 -59 -21
-135 -43 -158 -7 -7 -19 -22 -27 -34 -8 -11 -20 -21 -27 -21 -7 0 -13 -4 -13
-10 0 -5 -7 -10 -15 -10 -8 0 -15 -4 -15 -10 0 -5 -8 -10 -18 -10 -10 0 -23
-5 -29 -11 -5 -5 -46 -10 -89 -10 -46 0 -80 4 -82 10 -2 6 -15 11 -28 11 -13
0 -24 5 -24 10 0 6 -9 10 -20 10 -11 0 -20 4 -20 10 0 5 -11 20 -24 33 -31 31
-60 89 -75 150 -9 39 -9 56 3 91 28 83 69 156 88 156 10 0 18 5 18 10 0 6 7
10 15 10 8 0 15 4 15 9 0 29 209 47 226 20z m170 -1003 c15 -16 15 -130 0
-154 -5 -9 -76 -12 -267 -12 l-259 0 0 90 0 90 256 0 c210 0 258 -3 270 -14z"/>
<path d="M6020 7242 c-13 -14 -16 -77 -18 -402 -2 -249 0 -397 7 -420 l10 -35
141 -1 c78 -1 143 -4 146 -6 2 -2 4 -424 4 -937 0 -513 3 -952 7 -977 l6 -44
1308 0 1309 0 0 430 0 430 -870 0 -870 0 0 974 c0 536 -3 981 -6 990 -6 14
-66 16 -583 16 -527 -1 -577 -2 -591 -18z"/>
<path d="M9560 7230 c0 -16 5 -30 10 -30 6 0 10 -9 10 -20 0 -11 4 -20 9 -20
5 0 14 -13 21 -30 7 -16 16 -30 20 -30 4 0 13 -13 20 -30 7 -16 16 -30 20 -30
4 0 13 -13 20 -30 7 -16 16 -30 21 -30 5 0 9 -7 9 -15 0 -9 11 -27 24 -40 14
-13 27 -34 31 -45 3 -11 11 -20 16 -20 5 0 9 -6 9 -12 0 -7 11 -26 25 -42 13
-16 27 -37 30 -47 4 -11 11 -19 16 -19 5 0 9 -8 9 -18 0 -10 9 -24 20 -32 11
-8 20 -22 20 -32 0 -10 4 -18 9 -18 5 0 14 -13 21 -30 7 -16 16 -30 20 -30 4
0 13 -13 20 -30 7 -16 16 -30 20 -30 4 0 13 -13 20 -30 7 -16 16 -30 21 -30 5
0 9 -8 9 -18 0 -10 9 -24 20 -32 11 -8 20 -22 20 -32 0 -10 4 -18 9 -18 5 0
12 -8 16 -19 5 -16 14 -29 54 -77 5 -6 17 -26 26 -44 9 -18 21 -38 26 -44 39
-47 48 -60 59 -86 7 -17 16 -30 21 -30 5 0 9 -9 9 -20 0 -11 4 -20 9 -20 5 0
14 -13 21 -30 7 -16 16 -30 20 -30 4 0 13 -13 20 -30 7 -16 16 -30 21 -30 5 0
9 -9 9 -20 0 -11 6 -20 13 -20 8 0 22 -18 32 -40 10 -22 21 -40 25 -40 27 0
30 -69 30 -705 l0 -655 440 0 440 0 0 670 c0 369 4 670 8 670 5 0 17 19 28 42
10 23 29 52 41 64 13 13 23 29 23 36 0 8 9 20 20 28 11 8 20 21 20 30 0 9 9
22 20 30 11 8 20 22 20 32 0 10 4 18 9 18 5 0 14 14 21 30 7 17 16 30 20 30 4
0 16 17 25 37 10 20 22 42 27 47 39 47 47 60 58 86 7 17 16 30 21 30 5 0 9 7
9 15 0 9 5 21 10 28 39 46 50 61 50 68 0 4 6 14 14 21 7 8 21 29 31 48 10 19
23 40 29 47 30 33 36 43 36 55 0 8 9 20 20 28 11 8 20 22 20 32 0 10 4 18 9
18 5 0 14 14 21 30 7 17 16 30 20 30 4 0 13 14 20 30 7 17 16 30 20 30 4 0 13
14 20 30 7 17 16 30 21 30 5 0 9 7 9 16 0 9 8 24 19 33 10 9 28 36 41 60 12
25 29 51 36 59 8 7 14 17 14 21 0 4 9 18 20 31 11 13 20 31 20 42 0 10 6 18
14 18 7 0 19 14 26 30 7 17 16 30 20 30 4 0 12 11 18 25 27 58 57 55 -503 55
l-516 0 -24 -25 c-14 -13 -25 -31 -25 -40 0 -8 -4 -15 -9 -15 -5 0 -14 -13
-21 -30 -7 -16 -16 -30 -20 -30 -4 0 -13 -13 -20 -30 -7 -16 -16 -30 -21 -30
-5 0 -9 -9 -9 -20 0 -11 -4 -20 -9 -20 -5 0 -12 -8 -16 -19 -3 -10 -17 -31
-30 -47 -14 -16 -25 -35 -25 -41 0 -7 -4 -13 -9 -13 -5 0 -14 -13 -21 -30 -7
-16 -16 -30 -21 -30 -5 0 -9 -8 -9 -18 0 -17 -8 -30 -50 -79 -5 -7 -15 -24
-22 -38 -13 -30 -28 -33 -28 -5 0 11 -4 20 -9 20 -5 0 -13 9 -16 20 -4 11 -17
32 -31 45 -13 13 -24 31 -24 40 0 8 -4 15 -9 15 -5 0 -14 14 -21 30 -7 17 -16
30 -20 30 -3 0 -17 23 -30 50 -13 28 -27 50 -32 50 -4 0 -8 9 -8 20 0 11 -6
20 -14 20 -8 0 -17 8 -21 19 -3 10 -14 29 -25 41 -11 13 -20 31 -20 42 0 10
-4 18 -9 18 -5 0 -12 9 -16 19 -3 11 -19 34 -35 50 l-28 31 -506 0 -506 0 0
-30z"/>
<path d="M12966 7245 c-7 -20 -8 -2788 0 -2809 6 -14 49 -16 439 -16 403 0
433 1 440 18 3 9 6 257 5 550 l-1 532 653 0 653 0 -3 307 c-1 170 -4 318 -7
330 l-5 23 -643 2 -642 3 -3 85 c-2 47 0 95 3 108 l6 23 837 -1 c460 0 847 0
860 0 l22 0 0 414 c0 228 -3 421 -6 430 -6 14 -130 16 -1304 16 -1142 0 -1299
-2 -1304 -15z"/>
<path d="M1763 7243 c-10 -4 -13 -294 -13 -1403 0 -841 4 -1401 9 -1405 7 -4
653 -9 739 -6 9 1 12 289 12 1405 0 1271 -1 1404 -16 1410 -19 7 -713 7 -731
-1z"/>
<path d="M3100 5835 l0 -1415 438 2 437 3 0 715 0 715 32 3 c47 5 178 -35 253
-75 72 -40 198 -141 199 -160 1 -7 8 -13 16 -13 8 0 15 -4 15 -8 0 -5 8 -18
18 -30 50 -59 71 -89 109 -157 108 -191 171 -417 197 -705 9 -94 16 -198 16
-230 l0 -60 440 0 440 0 -2 1413 -3 1412 -439 3 -439 2 6 -355 c3 -211 2 -355
-4 -355 -5 0 -9 4 -9 8 0 5 -21 35 -46 68 -80 104 -212 219 -327 283 -23 12
-49 29 -57 35 -13 11 -183 95 -235 116 -86 35 -134 52 -225 80 -58 18 -118 36
-134 41 -16 5 -42 9 -57 9 -15 0 -30 4 -33 9 -3 4 -27 11 -53 15 -27 3 -77 10
-113 16 -130 20 -237 30 -337 30 l-103 0 0 -1415z"/>
<path d="M14910 5265 c-96 -6 -187 -16 -201 -22 -46 -20 -87 -79 -109 -156
-12 -39 -25 -80 -31 -89 -5 -10 -9 -27 -9 -37 0 -11 -4 -22 -9 -25 -4 -3 -14
-27 -21 -53 -6 -27 -15 -55 -18 -63 -3 -8 -26 -80 -52 -160 l-46 -145 -34 3
c-19 1 -39 7 -44 12 -6 6 -37 10 -70 10 -106 0 -176 -36 -230 -118 -30 -46
-36 -63 -36 -110 0 -63 25 -112 71 -139 16 -10 29 -21 29 -25 0 -4 39 -8 86
-8 70 0 94 4 125 22 22 12 39 25 39 30 0 4 6 8 13 8 7 0 19 10 27 21 8 12 20
27 25 33 13 13 28 55 94 261 28 88 56 174 62 190 6 17 17 50 24 75 23 81 42
115 72 127 15 6 91 14 168 17 77 3 192 9 256 12 115 6 117 6 124 -16 6 -20 -7
-79 -35 -155 -20 -54 -90 -282 -90 -292 0 -18 -14 -16 -57 9 -48 28 -167 30
-227 3 -39 -16 -106 -77 -106 -94 0 -5 -7 -17 -17 -26 -25 -25 -29 -107 -8
-152 20 -43 72 -92 97 -93 9 0 20 -4 23 -10 15 -24 195 -3 195 22 0 4 7 8 16
8 19 0 93 79 94 100 0 9 4 20 9 25 11 13 101 286 101 308 0 9 8 36 19 59 10
24 25 66 34 93 43 143 102 324 114 353 19 44 36 154 25 161 -5 3 -11 14 -15
24 -6 15 -22 17 -154 15 -81 -1 -227 -6 -323 -13z"/>
</g>
</svg>
